<svg xmlns="http://www.w3.org/2000/svg" version="1.1" xmlns:xlink="http://www.w3.org/1999/xlink" width="512" height="512" x="0" y="0" viewBox="0 0 256 256" style="enable-background:new 0 0 512 512" xml:space="preserve" class=""><g><path d="M241 184.641H15v-144c0-6.627 5.373-12 12-12h202c6.627 0 12 5.373 12 12v144z" class="st3" style="" fill="#F9BB32" data-original="#f9bb32"></path><path d="M55 28.641H27c-6.627 0-12 5.373-12 12v144h28v-144c0-6.628 5.373-12 12-12z" class="" style="" fill="#DB9C2E" data-original="#db9c2e"></path><path d="M243 206.641H13a8 8 0 0 1-8-8v-10a4 4 0 0 1 4-4h238a4 4 0 0 1 4 4v10a8 8 0 0 1-8 8z" class="" fill="#000000" opacity="1" data-original="#000000"></path><path d="M146 195.782h-36l-12-10.596h60z" class="" fill="#000000" opacity="1" data-original="#000000"></path><path d="M25 166.641v-120a8 8 0 0 1 8-8h190a8 8 0 0 1 8 8v120a8 8 0 0 1-8 8H33a8 8 0 0 1-8-8z" class="" style="" fill="#FFF4C1" data-original="#fff4c1"></path><path d="M223 169.641a3 3 0 0 1-3-3v-120a3 3 0 1 1 6 0v120a3 3 0 0 1-3 3z" class="" fill="#000000" opacity="1" data-original="#000000"></path><path d="m239.336 218.761-.371.371c-3.974 3.975-10.401 3.993-14.353.039l-72.935-72.952 14.764-14.767 72.935 72.952c3.952 3.954 3.935 10.381-.04 14.357z" class="" fill="#000000" opacity="1" data-original="#000000"></path><path d="M33 38.641a8 8 0 0 0-8 8v120a8 8 0 0 0 8 8h10v-134c0-.683.07-1.348.18-2H33z" class="" style="" fill="#FCE575" data-original="#fce575"></path><path d="M33 198.641v-10a4 4 0 0 1 4-4H9a4 4 0 0 0-4 4v10a8 8 0 0 0 8 8h28a8 8 0 0 1-8-8zM236.612 219.171l-72.935-72.952 8.764-8.766-6-6.001-14.764 14.767 72.935 72.952c3.577 3.578 9.174 3.892 13.152.976a10.07 10.07 0 0 1-1.152-.976z" class="" fill="#000000" opacity="1" data-original="#000000"></path><path d="m190.281 192.887 29.53 29.537c6.282 6.284 16.474 6.665 22.851.584 6.569-6.264 6.618-16.752.182-23.19l-29.746-29.753c-1.547-1.547-4.044-1.558-5.578-.023l-17.262 17.266c-1.534 1.534-1.524 4.032.023 5.579z" class="st14" style="" fill="#BF6C0D" data-original="#bf6c0d"></path><path d="M167.78 68.354c-10.518-10.521-24.525-16.292-39.441-16.252-14.916.041-28.955 5.889-39.531 16.467-21.832 21.837-21.928 57.272-.215 78.991 10.518 10.521 24.526 16.292 39.442 16.252 14.916-.041 28.954-5.889 39.53-16.467s16.423-24.621 16.463-39.54c.041-14.92-5.73-28.93-16.248-39.451zm-10.225 68.978c-16.282 16.286-42.704 16.358-58.898.16-16.194-16.198-16.122-42.625.16-58.912s42.704-16.358 58.898-.16 16.123 42.626-.16 58.912z" class="" style="" fill="#FF9079" data-original="#ff9079"></path><path d="M106.643 119.991v-2.132a1.67 1.67 0 0 0-1.67-1.67h-9.691a1.67 1.67 0 0 1-1.67-1.67v-2.216c0-.342.105-.675.3-.955l11.774-16.89a1.67 1.67 0 0 1 1.37-.715h3.949c.922 0 1.67.748 1.67 1.67v13.542c0 .922.748 1.67 1.67 1.67h.008c.922 0 1.67.748 1.67 1.67v2.223a1.67 1.67 0 0 1-1.67 1.67h-.008a1.67 1.67 0 0 0-1.67 1.67v2.132a1.67 1.67 0 0 1-1.67 1.67h-2.691a1.668 1.668 0 0 1-1.671-1.669zm.179-11.036v-1.239c0-1.651-2.141-2.301-3.058-.928l-.828 1.239c-.742 1.11.053 2.598 1.388 2.598h.828a1.67 1.67 0 0 0 1.67-1.67zM127.766 121.588c-10.357 0-10.357-10.831-10.357-14.39 0-3.523 0-14.247 10.357-14.247 10.359 0 10.359 10.724 10.359 14.247 0 3.559 0 14.39-10.359 14.39zm0-22.892c-3.194 0-4.326 2.225-4.326 8.503 0 6.465 1.092 8.646 4.326 8.646 3.195 0 4.328-2.263 4.328-8.646 0-6.279-1.133-8.503-4.328-8.503zM153.01 119.991v-2.132a1.67 1.67 0 0 0-1.67-1.67h-9.691a1.67 1.67 0 0 1-1.67-1.67v-2.216c0-.342.105-.675.3-.955l11.774-16.89a1.67 1.67 0 0 1 1.37-.715h3.949c.922 0 1.67.748 1.67 1.67v13.542c0 .922.748 1.67 1.67 1.67h.008c.922 0 1.67.748 1.67 1.67v2.223a1.67 1.67 0 0 1-1.67 1.67h-.008a1.67 1.67 0 0 0-1.67 1.67v2.132a1.67 1.67 0 0 1-1.67 1.67h-2.691a1.668 1.668 0 0 1-1.671-1.669zm.179-11.036v-1.239c0-1.651-2.141-2.301-3.058-.928l-.828 1.239c-.742 1.11.053 2.598 1.388 2.598h.828a1.67 1.67 0 0 0 1.67-1.67z" class="" fill="#000000" opacity="1" data-original="#000000"></path><path d="M102.593 147.559c-21.713-21.719-21.617-57.154.215-78.991 8.94-8.941 20.358-14.487 32.684-16.019a56.561 56.561 0 0 0-7.154-.448c-14.916.041-28.955 5.889-39.531 16.467-21.832 21.837-21.928 57.272-.215 78.991 10.518 10.521 24.526 16.292 39.442 16.252a56.744 56.744 0 0 0 6.846-.448c-12.198-1.519-23.47-6.986-32.287-15.804z" class="" style="" fill="#FF624B" data-original="#ff624b"></path><path d="m239.811 222.424-29.53-29.537c-1.547-1.547-1.557-4.045-.023-5.579l10.039-10.042-7.199-7.201c-1.547-1.547-4.044-1.557-5.578-.023l-17.262 17.267c-1.534 1.534-1.523 4.032.023 5.579l29.53 29.537c5.939 5.94 15.367 6.597 21.767 1.515a17.019 17.019 0 0 1-1.767-1.516z" class="" style="" fill="#A56021" data-original="#a56021"></path><path d="M152.059 87.076a2.988 2.988 0 0 1-2.121-.879c-5.725-5.725-13.368-8.878-21.523-8.878a3 3 0 1 1 0-6c9.758 0 18.908 3.777 25.766 10.636a3 3 0 0 1-2.122 5.121z" class="" fill="#000000" opacity="1" data-original="#000000"></path><circle cx="139.979" cy="134.358" r="9" class="" fill="#000000" opacity="1" data-original="#000000"></circle></g></svg>